# xmcd
#
# Track frame offsets: 
#        150
#        23847
#        53347
#        64187
#        72787
#        83730
#        103112
#        115812
#        132440
#        147290
#        170137
#        182015
#        190047
#        207170
#        230087
#        245062
#
# Disc length: 3669 seconds
#
# Revision: 4
# Processed by: cddbd v1.5.1PL2 Copyright (c) Steve Scherf et al.
# Submitted via: ExactAudioCopy v0.95b4
#
DISCID=e40e5310
DTITLE=Various Artist - Deep River of Song: Mississippi - The Blues Lineage
DYEAR=1999
DGENRE=Blues
TTITLE0=William Brown - Ragged And Dirty
TTITLE1=William Brown - Mississippi Blues
TTITLE2=Eddie "Son" House - County Farm Blues
TTITLE3=Sam Carter, Jim Mickles, Eddie Miles, Jack Rogers - High-Rolli
TTITLE3=ng Sergeant
TTITLE4=Hollis "Fat Head" Washington - Early In The Morning
TTITLE5=Eddie "Son" House - The Jinx Blues (No. 2)
TTITLE6=Muddy Waters - I Be Bound To Write You
TTITLE7=Muddy Waters - You Gonna Miss Me When I'm Gone
TTITLE8=David "Honeyboy" Edwards - Wind Howlin' Blues
TTITLE9=Lucious Curtis, Willie Ford - High Lonesome Hill
TTITLE10=Willie Ford, Lucious Curtis - Payday
TTITLE11=Lucious Curtis - Train Blues
TTITLE12=Willie Ford - Santa Field Blues
TTITLE13=Eddie  "Son" House - Low Down Dirty Dog Blues
TTITLE14=Frank Evans - Red River Blues
TTITLE15=Eddie "Son" House, Fiddlin' Joe Martin, Willie Brown, Leroy W
TTITLE15=illiams - Walking Blues
EXTD=
EXTT0=
EXTT1=
EXTT2=
EXTT3=
EXTT4=
EXTT5=
EXTT6=
EXTT7=
EXTT8=
EXTT9=
EXTT10=
EXTT11=
EXTT12=
EXTT13=
EXTT14=
EXTT15=
PLAYORDER=
